<svg width="25" height="25" viewBox="0 0 25 25" fill="none" xmlns="http://www.w3.org/2000/svg">
<g clip-path="url(#clip0_24_41)">
<path d="M12.1856 20.8636C12.3218 20.7715 12.4833 20.7239 12.6477 20.7273C12.7842 20.7305 12.9176 20.7687 13.035 20.8384C13.1524 20.908 13.2499 21.0068 13.3182 21.125C13.4059 21.0358 13.511 20.9655 13.627 20.9186C13.7429 20.8717 13.8673 20.8491 13.9924 20.8523C14.213 20.857 14.4244 20.9418 14.5871 21.0909C14.6456 20.8729 14.7756 20.6809 14.9562 20.5456C15.1368 20.4103 15.3577 20.3395 15.5833 20.3447C15.7097 20.3478 15.8344 20.3748 15.9507 20.4243V20.447C15.9659 19.8523 16.4432 19.3788 17.0265 19.3599C16.9143 19.1282 16.8709 18.8692 16.9015 18.6136C16.9583 18.1477 17.2462 17.7652 17.6364 17.5644L17.6401 17.5682C17.4394 17.3599 17.3182 17.0758 17.3257 16.7614C17.3309 16.5209 17.4132 16.2886 17.5606 16.0985C17.3449 15.9769 17.1801 15.7819 17.096 15.5491C17.0119 15.3162 17.0141 15.0609 17.1023 14.8296C16.8696 14.8058 16.6545 14.695 16.5 14.5194C16.3455 14.3438 16.2629 14.1164 16.2689 13.8826C16.269 13.8344 16.2728 13.7863 16.2803 13.7386C16.228 13.7494 16.1746 13.7544 16.1212 13.7538C15.9557 13.7489 15.7965 13.6894 15.6684 13.5846C15.5403 13.4798 15.4504 13.3355 15.4129 13.1743C15.2977 13.2516 15.1614 13.2913 15.0227 13.2879C14.7121 13.2765 14.4545 13.0606 14.3864 12.769C14.3193 12.8062 14.2433 12.8245 14.1667 12.822C14.1034 12.8206 14.0413 12.805 13.9848 12.7765V12.769C13.9173 12.9995 13.7906 13.2085 13.6174 13.375C13.7022 13.4147 13.7714 13.4813 13.8144 13.5644C13.8461 13.6268 13.8619 13.6961 13.8606 13.7661C13.8593 13.8361 13.8408 13.9047 13.8068 13.9659C13.9238 13.9924 14.0316 14.0496 14.119 14.1316C14.2065 14.2137 14.2706 14.3175 14.3045 14.4326C14.3385 14.5476 14.3412 14.6696 14.3123 14.786C14.2834 14.9024 14.2239 15.0089 14.1401 15.0947C14.2968 15.1633 14.4252 15.2837 14.5038 15.4356C14.6932 15.803 14.5454 16.2538 14.178 16.4432C14.2604 16.5188 14.3284 16.6086 14.3788 16.7083C14.6136 17.1667 14.4356 17.7311 13.9773 17.9583C13.9054 17.9959 13.829 18.0239 13.75 18.0417V18.0455C13.8123 18.1663 13.8502 18.2983 13.8614 18.4338C13.8727 18.5693 13.8571 18.7057 13.8156 18.8351C13.7741 18.9646 13.7074 19.0846 13.6195 19.1883C13.5315 19.292 13.424 19.3773 13.303 19.4394C13.1314 19.5276 12.9384 19.5657 12.7462 19.5493C12.7602 19.7789 12.7034 20.0074 12.5836 20.2038C12.4637 20.4003 12.2864 20.5552 12.0757 20.6477C12.1265 20.7108 12.165 20.7827 12.1894 20.8599C12.1881 20.86 12.1869 20.86 12.1856 20.8599V20.8636Z" fill="#75CDF3"/>
<path d="M23.6288 0.378784H1.46591C1.17758 0.378784 0.901069 0.49332 0.697195 0.697195C0.49332 0.901069 0.378784 1.17758 0.378784 1.46591V23.3409C0.378784 23.4837 0.406903 23.625 0.461536 23.7569C0.516169 23.8888 0.596246 24.0087 0.697195 24.1096C0.798143 24.2106 0.917987 24.2906 1.04988 24.3453C1.18178 24.3999 1.32314 24.428 1.46591 24.428H23.6288C23.7715 24.428 23.9129 24.3999 24.0448 24.3453C24.1767 24.2906 24.2965 24.2106 24.3975 24.1096C24.4984 24.0087 24.5785 23.8888 24.6332 23.7569C24.6878 23.625 24.7159 23.4837 24.7159 23.3409V1.46591C24.7159 1.32314 24.6878 1.18178 24.6332 1.04988C24.5785 0.917987 24.4984 0.798143 24.3975 0.697195C24.2965 0.596246 24.1767 0.516169 24.0448 0.461536C23.9129 0.406903 23.7715 0.378784 23.6288 0.378784ZM22.625 15.1061C22.4811 15.3333 22.2538 15.4848 22.0114 15.5455C22.1314 15.6863 22.206 15.8602 22.2253 16.0442C22.2447 16.2283 22.2079 16.4138 22.1197 16.5766C22.0316 16.7393 21.8963 16.8715 21.7316 16.9559C21.5669 17.0403 21.3805 17.0728 21.197 17.0492C21.1948 17.0353 21.1923 17.0214 21.1894 17.0076C21.2174 17.1493 21.2062 17.2961 21.1571 17.432C21.108 17.5679 21.0228 17.6878 20.9106 17.779C20.7984 17.8701 20.6636 17.9289 20.5205 17.9492C20.3774 17.9694 20.2315 17.9503 20.0985 17.8939C20.0884 17.995 20.0547 18.0924 20 18.178C19.8977 18.3409 19.7348 18.4432 19.5644 18.4697C19.5985 18.6213 19.6062 18.7776 19.5871 18.9318C19.5453 19.2879 19.3639 19.6129 19.0826 19.8352C18.8013 20.0575 18.4432 20.159 18.0871 20.1174H18.125C18.1665 20.2419 18.1858 20.3727 18.1818 20.5038C18.1739 20.7995 18.049 21.08 17.8346 21.2838C17.6201 21.4876 17.3336 21.598 17.0379 21.5909C16.8717 21.5866 16.7087 21.5452 16.5606 21.4697C16.5389 21.6587 16.4641 21.8376 16.3449 21.9858C16.2257 22.1341 16.067 22.2455 15.8871 22.3074C15.7072 22.3692 15.5135 22.3788 15.3283 22.3351C15.1432 22.2915 14.9742 22.1963 14.8409 22.0606C14.7819 22.236 14.6712 22.3894 14.5234 22.5006C14.3756 22.6119 14.1975 22.6759 14.0127 22.6841C13.8279 22.6923 13.6449 22.6443 13.4878 22.5466C13.3307 22.4488 13.2069 22.3058 13.1326 22.1364C13.0237 22.2257 12.893 22.2846 12.7539 22.3068C12.6148 22.3291 12.4722 22.3141 12.3409 22.2632C12.2095 22.2124 12.094 22.1275 12.0061 22.0174C11.9183 21.9073 11.8613 21.7758 11.8409 21.6364C11.7489 21.6808 11.6476 21.7029 11.5455 21.7008C11.2159 21.6932 10.947 21.4356 10.9167 21.1136L10.9205 21.1061C10.7684 21.346 10.5443 21.5316 10.2803 21.6364C9.95379 21.767 9.58922 21.7654 9.26393 21.6317C8.93863 21.4981 8.6782 21.2429 8.53788 20.9205C8.44894 21.0164 8.34379 21.0959 8.22727 21.1553C7.96393 21.2892 7.65829 21.3133 7.3772 21.2225C7.09611 21.1316 6.86243 20.9331 6.72727 20.6705C6.65032 20.5228 6.6076 20.3596 6.60227 20.1932C6.42616 20.2633 6.23386 20.2822 6.04745 20.2479C5.86103 20.2136 5.68808 20.1275 5.54844 19.9993C5.4088 19.8711 5.30815 19.7062 5.25804 19.5234C5.20793 19.3406 5.21039 19.1474 5.26515 18.9659C5.08303 18.9983 4.89538 18.9748 4.72686 18.8985C4.55835 18.8222 4.41685 18.6967 4.32096 18.5386C4.22507 18.3804 4.17927 18.1969 4.18959 18.0122C4.19991 17.8275 4.26587 17.6503 4.37878 17.5038C4.24793 17.4509 4.13348 17.3642 4.04719 17.2526C3.96091 17.1409 3.90588 17.0083 3.88776 16.8683C3.86964 16.7284 3.88908 16.5861 3.94408 16.4562C3.99908 16.3262 4.08767 16.2132 4.20075 16.1288C4.11818 16.0695 4.0507 15.9917 4.00378 15.9015C3.95446 15.8057 3.92969 15.6991 3.93167 15.5914C3.93365 15.4836 3.96233 15.378 4.01515 15.2841L4.03409 15.2879C3.85103 15.2433 3.67939 15.1607 3.5303 15.0455C3.25051 14.8299 3.06613 14.5135 3.01658 14.1639C2.96703 13.8142 3.05624 13.459 3.26515 13.1742C3.13878 13.1461 3.01828 13.0961 2.90909 13.0265C2.65965 12.8671 2.48365 12.6152 2.41973 12.3262C2.35582 12.0372 2.40921 11.7346 2.56818 11.4848C2.65828 11.345 2.77868 11.2272 2.92045 11.1401C2.76912 11.0243 2.65373 10.868 2.58767 10.6892C2.52162 10.5105 2.5076 10.3167 2.54726 10.1303C2.58692 9.94391 2.67862 9.77259 2.81172 9.63622C2.94482 9.49984 3.11387 9.40401 3.29924 9.35985C3.18019 9.21864 3.10656 9.04477 3.08802 8.861C3.06947 8.67724 3.10687 8.49216 3.19532 8.33002C3.28376 8.16788 3.41912 8.03623 3.58366 7.95233C3.7482 7.86843 3.93425 7.8362 4.11742 7.85985L4.12121 7.90151C4.09239 7.75946 4.10293 7.61224 4.15169 7.47575C4.20046 7.33925 4.28559 7.21868 4.39789 7.12704C4.51019 7.03541 4.64539 6.9762 4.78889 6.95581C4.93239 6.93542 5.07874 6.95463 5.21212 7.01136C5.22221 6.91025 5.25594 6.81293 5.3106 6.72727C5.41288 6.56818 5.57575 6.46591 5.75 6.4356C5.71502 6.28546 5.70606 6.13044 5.72348 5.97727C5.7645 5.62702 5.94071 5.30665 6.21456 5.08446C6.4884 4.86227 6.8382 4.75585 7.18939 4.78788C7.147 4.66487 7.12648 4.53539 7.12878 4.4053C7.14772 3.78788 7.65909 3.29924 8.27272 3.31818C8.43859 3.32116 8.60168 3.36128 8.75 3.4356C8.77236 3.24695 8.8476 3.06847 8.96704 2.92074C9.08647 2.77302 9.24524 2.66206 9.42502 2.60068C9.6048 2.5393 9.79827 2.53 9.98311 2.57385C10.168 2.61769 10.3366 2.7129 10.4697 2.84848C10.5283 2.67294 10.6386 2.51923 10.7862 2.40759C10.9338 2.29594 11.1117 2.23158 11.2966 2.22297C11.4814 2.21436 11.6646 2.26191 11.8219 2.35936C11.9792 2.45681 12.1034 2.59959 12.178 2.76894C12.2869 2.67958 12.4176 2.62074 12.5567 2.59845C12.6958 2.57616 12.8384 2.59122 12.9697 2.64207C13.1011 2.69293 13.2166 2.77776 13.3045 2.8879C13.3923 2.99804 13.4493 3.12954 13.4697 3.26894C13.562 3.22577 13.6633 3.205 13.7651 3.20833C14.0985 3.21591 14.3636 3.47348 14.3977 3.79166L14.3901 3.80303C14.5414 3.5615 14.7656 3.37442 15.0303 3.26894C15.7121 2.99242 16.4848 3.31439 16.7727 3.98863C16.8613 3.89136 16.9665 3.81057 17.0833 3.75C17.347 3.61493 17.6536 3.59013 17.9356 3.68105C18.2176 3.77197 18.452 3.97117 18.5871 4.23484C18.6628 4.38285 18.7042 4.54596 18.7083 4.71212C18.885 4.64059 19.0783 4.62063 19.2659 4.65457C19.4534 4.6885 19.6275 4.77493 19.7679 4.90383C19.9083 5.03272 20.0092 5.1988 20.059 5.38277C20.1088 5.56674 20.1054 5.76106 20.0492 5.94318C20.2307 5.91163 20.4175 5.9355 20.5852 6.01168C20.753 6.08785 20.8939 6.21279 20.9895 6.3702C21.0852 6.52762 21.1312 6.71021 21.1216 6.89418C21.112 7.07814 21.0472 7.25493 20.9356 7.40151C21.0665 7.45435 21.1809 7.54105 21.2672 7.65272C21.3535 7.76439 21.4085 7.89701 21.4266 8.03696C21.4447 8.17692 21.4253 8.31917 21.3703 8.44913C21.3153 8.5791 21.2267 8.69209 21.1136 8.77651C21.1948 8.83621 21.261 8.91403 21.3068 9.00378C21.3568 9.10009 21.3819 9.20735 21.38 9.31583C21.378 9.42432 21.3489 9.53059 21.2955 9.625C21.4729 9.67043 21.6392 9.75164 21.7841 9.86363C22.0622 10.0796 22.2451 10.3955 22.2939 10.7443C22.3427 11.093 22.2536 11.447 22.0455 11.7311C22.1721 11.7604 22.2926 11.8117 22.4015 11.8826C22.6499 12.0419 22.8252 12.2931 22.889 12.5812C22.9529 12.8694 22.9002 13.171 22.7424 13.4205C22.6538 13.5613 22.5347 13.6804 22.3939 13.7689C22.5921 13.923 22.7256 14.1455 22.7683 14.3928C22.811 14.6401 22.7599 14.8944 22.625 15.1061Z" fill="#75CDF3"/>
<path d="M11.9924 3.78031C11.9047 3.86955 11.7996 3.9398 11.6836 3.98672C11.5677 4.03363 11.4433 4.05621 11.3182 4.05304C11.0994 4.04844 10.8896 3.96505 10.7273 3.81819C10.6679 4.03611 10.5371 4.22778 10.3557 4.36241C10.1744 4.49705 9.95306 4.56685 9.72729 4.56061C9.60114 4.55867 9.47649 4.53297 9.35986 4.48485C9.34668 4.76449 9.22867 5.02891 9.02932 5.22545C8.82996 5.42199 8.5639 5.53625 8.2841 5.54546C8.39633 5.77711 8.43972 6.0361 8.4091 6.29167C8.38289 6.51368 8.30204 6.72572 8.1738 6.90882C8.04556 7.09193 7.87393 7.24039 7.67426 7.34091C7.87501 7.54925 7.99244 7.83334 7.98486 8.14773C7.97889 8.38686 7.8966 8.6178 7.75001 8.80682C8.07577 8.98864 8.28789 9.33713 8.28032 9.73485C8.27585 9.85175 8.25152 9.96704 8.20835 10.0758C8.44169 10.0996 8.65735 10.2109 8.81195 10.3873C8.96656 10.5637 9.04864 10.7921 9.04168 11.0265C9.04141 11.0735 9.03761 11.1203 9.03032 11.1667C9.08279 11.1572 9.13612 11.1534 9.18941 11.1553C9.53789 11.1629 9.82577 11.4091 9.90153 11.7349C10.0156 11.6583 10.1505 11.6186 10.2879 11.6212C10.6023 11.6288 10.8561 11.8485 10.928 12.1402C10.9866 12.1072 11.0522 12.0886 11.1194 12.086C11.1866 12.0834 11.2534 12.0967 11.3144 12.125C11.3587 11.8884 11.4645 11.6676 11.6212 11.4849C11.5706 11.4466 11.5291 11.3974 11.5 11.3409C11.4684 11.2793 11.4522 11.2109 11.4529 11.1416C11.4536 11.0723 11.471 11.0042 11.5038 10.9432C11.3864 10.9166 11.2783 10.859 11.1906 10.7765C11.103 10.694 11.039 10.5896 11.0054 10.474C10.9718 10.3584 10.9697 10.2359 10.9994 10.1193C11.0291 10.0026 11.0895 9.89604 11.1743 9.81061C11.0176 9.74201 10.8892 9.62166 10.8106 9.4697C10.7631 9.37677 10.7356 9.27495 10.7297 9.17075C10.7238 9.06656 10.7398 8.96228 10.7765 8.8646C10.8132 8.76691 10.8699 8.67796 10.943 8.60344C11.016 8.52892 11.1038 8.47047 11.2008 8.43182C11.1802 8.43977 11.16 8.44862 11.1402 8.45834C11.0565 8.38309 10.9872 8.29324 10.9356 8.19319C10.8702 8.06627 10.8349 7.92596 10.8325 7.78318C10.8301 7.6404 10.8607 7.49899 10.9219 7.36997C10.9832 7.24096 11.0733 7.1278 11.1854 7.03932C11.2975 6.95085 11.4285 6.88943 11.5682 6.85985V6.85607C11.4433 6.61283 11.4197 6.33002 11.5028 6.0695C11.5859 5.80898 11.7687 5.59196 12.0114 5.46591C12.1837 5.37568 12.3781 5.33628 12.572 5.35228C12.5586 5.13465 12.6088 4.91783 12.7164 4.72819C12.824 4.53855 12.9844 4.38426 13.178 4.2841C13.198 4.27467 13.2182 4.26583 13.2386 4.25758C13.1893 4.19425 13.152 4.12233 13.1288 4.04546C12.9921 4.13626 12.8307 4.18257 12.6667 4.17804C12.5298 4.17446 12.3962 4.13563 12.2787 4.06529C12.1613 3.99495 12.064 3.89548 11.9962 3.77652L11.9924 3.78031ZM20.125 12C19.948 11.8626 19.8079 11.6834 19.7173 11.4784C19.6267 11.2734 19.5885 11.0492 19.6061 10.8258C19.3258 10.8902 19.019 10.8485 18.7576 10.678C18.5544 10.55 18.3978 10.3601 18.3106 10.1364C18.1475 10.2289 17.9622 10.2753 17.7747 10.2706C17.5873 10.266 17.4046 10.2104 17.2462 10.1099C17.146 10.046 17.0576 9.96524 16.9849 9.87122C16.697 10.2576 16.1553 10.3636 15.7424 10.0985C15.7025 10.0736 15.6645 10.0457 15.6288 10.0152C15.6112 10.0654 15.5884 10.1137 15.5606 10.1591C15.4708 10.2985 15.3374 10.4043 15.1811 10.4598C15.0249 10.5153 14.8546 10.5174 14.697 10.4659C14.7026 10.6038 14.6656 10.74 14.5909 10.8561C14.4243 11.1212 14.1023 11.2273 13.8182 11.1364C13.8166 11.2128 13.7943 11.2874 13.7538 11.3523C13.7311 11.3864 13.7046 11.4167 13.678 11.4394C13.8286 11.6017 13.9377 11.7979 13.9962 12.0114C14.0553 11.983 14.1201 11.9688 14.1856 11.9697C14.2554 11.9716 14.3236 11.9906 14.3843 12.0249C14.445 12.0593 14.4965 12.1079 14.5341 12.1667C14.6132 12.0764 14.715 12.0089 14.8289 11.9711C14.9428 11.9333 15.0648 11.9266 15.1821 11.9517C15.2995 11.9768 15.4081 12.0328 15.4966 12.1139C15.5851 12.1949 15.6503 12.2982 15.6856 12.4129C15.821 12.3084 15.9881 12.2536 16.1591 12.2576C16.5758 12.2652 16.8977 12.6099 16.8902 13.0227C16.8889 13.0481 16.8864 13.0734 16.8826 13.0985L16.8902 13.0265C16.9959 12.9891 17.1076 12.9711 17.2197 12.9735C17.3422 12.9759 17.4631 13.0026 17.5752 13.052C17.6874 13.1014 17.7887 13.1726 17.8732 13.2613C17.9577 13.3501 18.0238 13.4547 18.0677 13.5691C18.1116 13.6835 18.1323 13.8055 18.1288 13.928C18.1266 14.0089 18.1139 14.0891 18.0909 14.1667C18.6629 14.1818 19.1137 14.6553 19.0985 15.2273C19.0937 15.4203 19.0347 15.608 18.928 15.7689C19.1278 15.8607 19.2964 16.0089 19.4129 16.1954C19.5293 16.3819 19.5886 16.5984 19.5833 16.8182C19.5788 16.944 19.5532 17.0682 19.5076 17.1856L19.5114 17.178L19.6136 17.197C19.6061 17.0325 19.6498 16.8697 19.7386 16.7311C19.8122 16.6157 19.9144 16.5213 20.0351 16.4569C20.1559 16.3925 20.2912 16.3604 20.428 16.3636C20.3966 16.2423 20.3904 16.1158 20.4099 15.992C20.4295 15.8681 20.4743 15.7497 20.5417 15.6439C20.6609 15.4602 20.8425 15.3257 21.053 15.2652C20.8956 15.1023 20.7976 14.8911 20.7749 14.6656C20.7522 14.4402 20.8062 14.2137 20.928 14.0227C20.9971 13.9161 21.0858 13.8236 21.1894 13.75C20.955 13.5947 20.788 13.3565 20.722 13.0832C20.6559 12.8099 20.6957 12.5217 20.8333 12.2765C20.5769 12.2537 20.3323 12.1577 20.1288 12H20.125Z" fill="#75CDF3"/>
<path d="M20.178 8.95455C20.2019 8.91509 20.2298 8.87826 20.2614 8.8447C20.1166 8.76844 19.9989 8.64939 19.9243 8.50379C19.8618 8.3821 19.8318 8.24635 19.8371 8.10966C19.8424 7.97298 19.8828 7.83997 19.9546 7.72349C19.7197 7.6553 19.5152 7.49621 19.394 7.26137C19.2932 7.06655 19.2663 6.84188 19.3182 6.62879C19.0986 6.6818 18.8675 6.65945 18.6621 6.56534C18.4567 6.47122 18.2889 6.31081 18.1856 6.10985C18.1276 5.99643 18.0916 5.87304 18.0796 5.74621C17.8278 5.86885 17.539 5.89211 17.2709 5.81138C17.0027 5.73065 16.7748 5.55185 16.6326 5.31061C16.483 5.51955 16.2766 5.68123 16.0379 5.77652C15.8304 5.85958 15.6055 5.88991 15.3834 5.86479C15.1613 5.83967 14.9489 5.75989 14.7652 5.63258V5.62121C14.7212 5.76471 14.6489 5.89796 14.5526 6.0131C14.4563 6.12825 14.338 6.22296 14.2046 6.29167C13.9916 6.40282 13.7486 6.44265 13.5114 6.40531C13.5081 6.59221 13.4543 6.77475 13.3556 6.93349C13.2569 7.09224 13.117 7.22125 12.9508 7.30682C12.8465 7.36091 12.7338 7.39679 12.6174 7.41288C12.803 7.85606 12.6174 8.375 12.1818 8.59849C12.1404 8.62063 12.0973 8.63963 12.053 8.65531C12.0867 8.69629 12.1159 8.74073 12.1402 8.78788C12.2993 9.09849 12.2197 9.4697 11.9697 9.6894C12.0918 9.75382 12.191 9.85436 12.2538 9.97727C12.3977 10.2538 12.3296 10.5833 12.1023 10.7841C12.1683 10.8245 12.222 10.8821 12.2576 10.9508C12.2765 10.9849 12.2879 11.0189 12.2955 11.053C12.5179 10.9908 12.7523 10.9856 12.9773 11.0379C12.9873 10.9868 13.0066 10.9381 13.0341 10.8939C13.0714 10.8357 13.1222 10.7874 13.1822 10.7531C13.2423 10.7188 13.3097 10.6995 13.3788 10.697C13.342 10.5824 13.3366 10.4601 13.363 10.3428C13.3894 10.2254 13.4468 10.1173 13.5291 10.0295C13.6114 9.94182 13.7157 9.87772 13.8311 9.84388C13.9466 9.81005 14.069 9.80771 14.1856 9.83712C14.1669 9.66726 14.207 9.49611 14.2993 9.35227C14.519 9.00379 14.9811 8.90152 15.3296 9.125C15.3532 9.01449 15.3969 8.90923 15.4583 8.8144C15.5238 8.71071 15.6092 8.62104 15.7096 8.55056C15.81 8.48008 15.9233 8.43019 16.043 8.40377C16.1628 8.37736 16.2866 8.37494 16.4073 8.39666C16.528 8.41837 16.6432 8.4638 16.7462 8.5303C16.8133 8.57402 16.8744 8.62622 16.928 8.68561C17.0009 8.57091 17.0956 8.47168 17.2068 8.3936C17.318 8.31553 17.4435 8.26013 17.5761 8.23058C17.7087 8.20103 17.8459 8.19791 17.9797 8.22139C18.1135 8.24487 18.2414 8.29449 18.3561 8.36743C18.5203 8.47136 18.6517 8.6198 18.7349 8.79546C19.0947 8.55303 19.5796 8.53031 19.9659 8.78031C20.0435 8.82951 20.1147 8.88803 20.178 8.95455ZM13.0568 13.9545C13.0167 13.8804 12.9996 13.796 13.0076 13.7121C12.8961 13.7402 12.7816 13.7542 12.6667 13.7538C12.553 13.7538 12.4432 13.7424 12.3409 13.7159C12.3586 13.8197 12.337 13.9264 12.2803 14.0152C12.2427 14.0739 12.1913 14.1226 12.1305 14.1569C12.0698 14.1912 12.0016 14.2102 11.9318 14.2121C11.9674 14.3261 11.9721 14.4474 11.9454 14.5638C11.9187 14.6801 11.8616 14.7873 11.78 14.8743C11.6983 14.9614 11.595 15.0252 11.4806 15.0593C11.3662 15.0933 11.2448 15.0964 11.1288 15.0682C11.1476 15.238 11.1074 15.4092 11.0152 15.553C10.9079 15.72 10.7389 15.8377 10.5451 15.8803C10.3512 15.9229 10.1484 15.8869 9.98107 15.7803C9.95742 15.8908 9.91377 15.9961 9.85229 16.0909C9.7868 16.1941 9.70158 16.2833 9.60153 16.3534C9.50148 16.4236 9.38856 16.4733 9.26925 16.4997C9.14994 16.5261 9.02659 16.5286 8.90629 16.5073C8.78598 16.4859 8.67109 16.4409 8.56819 16.375C8.49984 16.3315 8.43744 16.2793 8.38259 16.2197V16.2235C8.23489 16.4545 8.00147 16.6174 7.73367 16.6764C7.46588 16.7353 7.18563 16.6855 6.95456 16.5379C6.79086 16.435 6.65956 16.2879 6.57577 16.1136C6.21592 16.3561 5.73486 16.3788 5.34471 16.1288C5.26718 16.0796 5.19594 16.021 5.13259 15.9545C5.10851 15.9927 5.08059 16.0282 5.04926 16.0606C5.19542 16.1362 5.31453 16.2554 5.39016 16.4015C5.45207 16.5235 5.48145 16.6595 5.47548 16.7961C5.46951 16.9328 5.42838 17.0657 5.35607 17.1818C5.59092 17.25 5.79926 17.4091 5.91668 17.6439C6.01741 17.8388 6.04432 18.0634 5.99244 18.2765C6.21304 18.2229 6.4453 18.2453 6.65155 18.3402C6.85781 18.4351 7.02598 18.5968 7.1288 18.7992C7.18514 18.9117 7.21983 19.0338 7.23107 19.1591C7.48325 19.0353 7.77288 19.0115 8.04192 19.0923C8.31096 19.173 8.53953 19.3525 8.68183 19.5947C8.83147 19.3858 9.03785 19.2241 9.27653 19.1288C9.71213 18.9545 10.1856 19.0227 10.5493 19.2727C10.5939 19.1315 10.6662 19.0006 10.7617 18.8875C10.8573 18.7744 10.9743 18.6813 11.1061 18.6136C11.3194 18.5038 11.5624 18.4653 11.7993 18.5038C11.803 18.1364 12.0076 17.7803 12.3599 17.5985C12.4653 17.5441 12.5794 17.5082 12.697 17.4924C12.5076 17.0492 12.697 16.5303 13.1288 16.3068C13.1716 16.2858 13.2159 16.2681 13.2614 16.2538C13.2262 16.2118 13.1957 16.1661 13.1705 16.1174C13.0114 15.8068 13.0947 15.4394 13.3409 15.2197C13.2188 15.1553 13.1196 15.0547 13.0568 14.9318C12.9167 14.6515 12.9849 14.322 13.2083 14.1212C13.1437 14.0803 13.0914 14.0227 13.0568 13.9545Z" fill="#75CDF3"/>
<path d="M11.3788 12.8599C11.3044 12.9115 11.2155 12.9381 11.125 12.9356C11.0556 12.9341 10.9876 12.9157 10.9269 12.882C10.8662 12.8484 10.8146 12.8005 10.7765 12.7424C10.6973 12.8317 10.5957 12.8984 10.4823 12.9355C10.3688 12.9727 10.2476 12.9791 10.1308 12.9541C10.0141 12.9291 9.90612 12.8735 9.81791 12.793C9.72971 12.7126 9.66444 12.6102 9.62878 12.4962C9.49189 12.6002 9.32331 12.6537 9.15151 12.6477C8.73863 12.6402 8.41288 12.2955 8.42424 11.8826C8.31706 11.9192 8.20409 11.9359 8.09091 11.9318C7.94823 11.9285 7.80825 11.8922 7.68185 11.826C7.55545 11.7597 7.44604 11.6652 7.36212 11.5498C7.2782 11.4343 7.22203 11.3011 7.19799 11.1604C7.17394 11.0197 7.18267 10.8754 7.22348 10.7386H7.21969C6.65151 10.7273 6.19697 10.2538 6.21212 9.68183C6.21687 9.48884 6.27595 9.3011 6.38257 9.14016C6.18418 9.04732 6.01721 8.89857 5.90215 8.71219C5.78709 8.5258 5.72894 8.30988 5.73484 8.09092C5.73735 7.96678 5.76039 7.8439 5.80303 7.72728C5.76849 7.72367 5.73429 7.71734 5.70075 7.70834C5.70832 7.87284 5.66464 8.03563 5.57575 8.17425C5.50215 8.28962 5.40004 8.38406 5.27927 8.44842C5.1585 8.51279 5.02317 8.54491 4.88636 8.54168C4.94697 8.78031 4.91288 9.03789 4.77272 9.26137C4.65508 9.44582 4.47486 9.58165 4.26515 9.64395C4.57954 9.9735 4.64394 10.4849 4.38636 10.8864C4.3184 10.9927 4.23102 11.0852 4.12878 11.1591C4.36221 11.3143 4.52852 11.5518 4.59452 11.8242C4.66052 12.0967 4.62135 12.384 4.48484 12.6288C4.7404 12.6534 4.98356 12.7507 5.1856 12.9091C5.36206 13.0461 5.50181 13.2248 5.59237 13.429C5.68293 13.6333 5.72147 13.8568 5.70454 14.0796C5.98863 14.0152 6.29166 14.0606 6.55681 14.2311C6.75793 14.3587 6.91316 14.5471 7 14.7689C7.16348 14.677 7.3489 14.6312 7.53639 14.6366C7.72389 14.6419 7.9064 14.6981 8.06439 14.7993C8.16432 14.862 8.25272 14.9414 8.32575 15.0341C8.61363 14.6477 9.15909 14.5417 9.56818 14.8068C9.60824 14.8329 9.64623 14.862 9.68181 14.8939C9.70057 14.8435 9.7247 14.7953 9.75378 14.75C9.94318 14.4546 10.2992 14.3371 10.6174 14.4394C10.6114 14.3032 10.6471 14.1684 10.7197 14.053C10.8901 13.7879 11.2121 13.6856 11.4924 13.7765C11.4939 13.6962 11.5183 13.6179 11.5625 13.5509C11.6068 13.4838 11.6692 13.4307 11.7424 13.3977C11.5811 13.2521 11.4565 13.0704 11.3788 12.8674V12.8599Z" fill="#75CDF3"/>
</g>
<defs>
<clipPath id="clip0_24_41">
<rect width="25" height="25" fill="white"/>
</clipPath>
</defs>
</svg>
