<svg xmlns="http://www.w3.org/2000/svg" xmlns:xlink="http://www.w3.org/1999/xlink" width="500" zoomAndPan="magnify" viewBox="0 0 375 374.999991" height="500" preserveAspectRatio="xMidYMid meet" version="1.0"><defs><clipPath id="8745d98681"><path d="M 87 67 L 287 67 L 287 362 L 87 362 Z M 87 67 " clip-rule="nonzero"/></clipPath><clipPath id="b68aa64794"><path d="M 286.933594 66.636719 L 288.484375 360.632812 L 88.238281 361.691406 L 86.6875 67.695312 Z M 286.933594 66.636719 " clip-rule="nonzero"/></clipPath><clipPath id="9b21edac9f"><path d="M 286.933594 66.636719 L 288.484375 360.632812 L 88.238281 361.691406 L 86.6875 67.695312 Z M 286.933594 66.636719 " clip-rule="nonzero"/></clipPath><clipPath id="1f0a64abbc"><path d="M 40 19.25 L 335 19.25 L 335 38.75 L 40 38.75 Z M 40 19.25 " clip-rule="nonzero"/></clipPath></defs><g clip-path="url(#8745d98681)"><g clip-path="url(#b68aa64794)"><g clip-path="url(#9b21edac9f)"><path fill="#75cdf3" d="M 209.871094 339.453125 L 208.824219 141.054688 C 208.824219 141.054688 250.496094 182.632812 251.921875 183.726562 C 255.609375 186.574219 260.222656 188.273438 265.234375 188.246094 C 270.777344 188.21875 275.800781 186.097656 279.621094 182.652344 L 281.367188 180.886719 C 284.765625 177.03125 286.839844 171.972656 286.808594 166.429688 C 286.78125 160.730469 284.527344 155.5625 280.910156 151.707031 C 280.910156 151.707031 200.644531 72.078125 200.117188 71.671875 C 196.4375 68.859375 191.859375 67.183594 186.867188 67.207031 C 181.886719 67.234375 177.320312 68.960938 173.675781 71.804688 C 172.199219 72.957031 92.734375 153.699219 92.734375 153.699219 C 89.734375 157.441406 87.945312 162.191406 87.972656 167.367188 C 88.039062 179.347656 97.792969 189.019531 109.761719 188.953125 C 115.015625 188.925781 119.820312 187.03125 123.554688 183.90625 L 165.6875 141.28125 L 166.734375 339.683594 C 166.796875 351.609375 176.507812 361.222656 188.417969 361.160156 C 200.332031 361.097656 209.933594 351.382812 209.871094 339.453125 " fill-opacity="1" fill-rule="nonzero"/></g></g></g><g clip-path="url(#1f0a64abbc)"><path fill="#75cdf3" d="M 324.902344 19.25 L 50.097656 19.25 C 44.675781 19.25 40.285156 23.617188 40.285156 29 C 40.285156 34.386719 44.675781 38.75 50.097656 38.75 L 324.902344 38.75 C 330.324219 38.75 334.714844 34.386719 334.714844 29 C 334.714844 23.617188 330.324219 19.25 324.902344 19.25 Z M 324.902344 19.25 " fill-opacity="1" fill-rule="nonzero"/></g></svg>