<svg xmlns="http://www.w3.org/2000/svg" xmlns:xlink="http://www.w3.org/1999/xlink" width="500" zoomAndPan="magnify" viewBox="0 0 375 374.999991" height="500" preserveAspectRatio="xMidYMid meet" version="1.0"><defs><clipPath id="ef41323076"><path d="M 137 37.5 L 337.5 37.5 L 337.5 238 L 137 238 Z M 137 37.5 " clip-rule="nonzero"/></clipPath><clipPath id="4f6a992746"><path d="M 37.5 37.5 L 337.5 37.5 L 337.5 337.5 L 37.5 337.5 Z M 37.5 37.5 " clip-rule="nonzero"/></clipPath></defs><g clip-path="url(#ef41323076)"><path fill="#75cdf3" d="M 217.5 37.5 C 206.4375 37.5 197.5 46.4375 197.5 57.5 C 197.5 68.5625 206.4375 77.5 217.5 77.5 L 269.1875 77.5 L 143.375 203.375 C 135.5625 211.1875 135.5625 223.875 143.375 231.6875 C 151.1875 239.5 163.875 239.5 171.6875 231.6875 L 297.5 105.8125 L 297.5 157.5 C 297.5 168.5625 306.4375 177.5 317.5 177.5 C 328.5625 177.5 337.5 168.5625 337.5 157.5 L 337.5 57.5 C 337.5 46.4375 328.5625 37.5 317.5 37.5 Z M 217.5 37.5 " fill-opacity="1" fill-rule="nonzero"/></g><g clip-path="url(#4f6a992746)"><path fill="#75cdf3" d="M 317.5 217.5 C 306.4375 217.5 297.5 226.4375 297.5 237.5 L 297.5 287.5 C 297.5 293 293 297.5 287.5 297.5 L 87.5 297.5 C 82 297.5 77.5 293 77.5 287.5 L 77.5 87.5 C 77.5 82 82 77.5 87.5 77.5 L 137.5 77.5 C 148.5625 77.5 157.5 68.5625 157.5 57.5 C 157.5 46.4375 148.5625 37.5 137.5 37.5 L 87.5 37.5 C 59.875 37.5 37.5 59.875 37.5 87.5 L 37.5 287.5 C 37.5 315.125 59.875 337.5 87.5 337.5 L 287.5 337.5 C 315.125 337.5 337.5 315.125 337.5 287.5 L 337.5 237.5 C 337.5 226.4375 328.5625 217.5 317.5 217.5 Z M 317.5 217.5 " fill-opacity="1" fill-rule="nonzero"/></g></svg>